<?xml version="1.0" encoding="utf-8"?>
<svg width="1920" height="1080" viewBox="0 0 1920 1080" fill="none" xmlns="http://www.w3.org/2000/svg">
  <g id="ink-handbook">
    <g id="background">
      <rect width="1920" height="1080" fill="#323232"/>
      <rect width="1920" height="1080" fill="url(#paint0_linear_433:2)" fill-opacity="0.15"/>
    </g>
    <path id="line2" d="M403.601 348H364.901V340.2L377.501 337.35V251.7L364.901 248.7V240.9H403.601V248.7L391.001 251.7V337.35L403.601 340.2V348ZM461.181 266.1C470.781 266.1 478.031 268.45 482.931 273.15C487.831 277.75 490.281 285.25 490.281 295.65V348H477.231V296.55C477.231 283.65 471.231 277.2 459.231 277.2C450.331 277.2 444.181 279.7 440.781 284.7C437.381 289.7 435.681 296.9 435.681 306.3V348H422.481V267.6H433.131L435.081 278.55H435.831C438.431 274.35 442.031 271.25 446.631 269.25C451.231 267.15 456.081 266.1 461.181 266.1ZM528.256 293.55C528.256 295.15 528.156 297.25 527.956 299.85C527.856 302.45 527.756 304.7 527.656 306.6H528.256C528.856 305.8 529.756 304.65 530.956 303.15C532.156 301.65 533.356 300.15 534.556 298.65C535.856 297.05 536.956 295.75 537.856 294.75L563.506 267.6H578.956L546.406 301.95L581.206 348H565.306L537.406 310.5L528.256 318.45V348H515.206V234H528.256V293.55ZM627.548 306.9C627.548 294.7 629.298 282.95 632.798 271.65C636.398 260.25 641.998 250 649.598 240.9H662.048C655.048 250.3 649.748 260.65 646.148 271.95C642.648 283.25 640.898 294.85 640.898 306.75C640.898 318.35 642.648 329.75 646.148 340.95C649.748 352.05 654.998 362.3 661.898 371.7H649.598C641.998 362.9 636.398 352.95 632.798 341.85C629.298 330.65 627.548 319 627.548 306.9ZM746.469 267.6V348H735.669L733.719 337.35H733.119C730.519 341.55 726.919 344.65 722.319 346.65C717.719 348.55 712.819 349.5 707.619 349.5C697.919 349.5 690.619 347.2 685.719 342.6C680.819 337.9 678.369 330.45 678.369 320.25V267.6H691.719V319.35C691.719 332.15 697.669 338.55 709.569 338.55C718.469 338.55 724.619 336.05 728.019 331.05C731.519 326.05 733.269 318.85 733.269 309.45V267.6H746.469ZM824.343 325.8C824.343 333.6 821.443 339.5 815.643 343.5C809.843 347.5 802.043 349.5 792.243 349.5C786.643 349.5 781.793 349.05 777.693 348.15C773.693 347.25 770.143 346 767.043 344.4V332.4C770.243 334 774.093 335.5 778.593 336.9C783.193 338.2 787.843 338.85 792.543 338.85C799.243 338.85 804.093 337.8 807.093 335.7C810.093 333.5 811.593 330.6 811.593 327C811.593 325 811.043 323.2 809.943 321.6C808.843 320 806.843 318.4 803.943 316.8C801.143 315.2 797.093 313.4 791.793 311.4C786.593 309.4 782.143 307.4 778.443 305.4C774.743 303.4 771.893 301 769.893 298.2C767.893 295.4 766.893 291.8 766.893 287.4C766.893 280.6 769.643 275.35 775.143 271.65C780.743 267.95 788.043 266.1 797.043 266.1C801.943 266.1 806.493 266.6 810.693 267.6C814.993 268.5 818.993 269.8 822.693 271.5L818.193 282C814.793 280.6 811.243 279.4 807.543 278.4C803.843 277.4 800.043 276.9 796.143 276.9C790.743 276.9 786.593 277.8 783.693 279.6C780.893 281.3 779.493 283.65 779.493 286.65C779.493 288.85 780.143 290.75 781.443 292.35C782.743 293.85 784.893 295.35 787.893 296.85C790.993 298.25 795.093 299.95 800.193 301.95C805.293 303.85 809.643 305.8 813.243 307.8C816.843 309.8 819.593 312.25 821.493 315.15C823.393 317.95 824.343 321.5 824.343 325.8ZM850.521 237.45C852.521 237.45 854.271 238.15 855.771 239.55C857.371 240.85 858.171 242.95 858.171 245.85C858.171 248.65 857.371 250.75 855.771 252.15C854.271 253.55 852.521 254.25 850.521 254.25C848.321 254.25 846.471 253.55 844.971 252.15C843.471 250.75 842.721 248.65 842.721 245.85C842.721 242.95 843.471 240.85 844.971 239.55C846.471 238.15 848.321 237.45 850.521 237.45ZM856.971 267.6V348H843.771V267.6H856.971ZM921.142 266.1C930.742 266.1 937.992 268.45 942.892 273.15C947.792 277.75 950.242 285.25 950.242 295.65V348H937.192V296.55C937.192 283.65 931.192 277.2 919.192 277.2C910.292 277.2 904.142 279.7 900.742 284.7C897.342 289.7 895.642 296.9 895.642 306.3V348H882.442V267.6H893.092L895.042 278.55H895.792C898.392 274.35 901.992 271.25 906.592 269.25C911.192 267.15 916.042 266.1 921.142 266.1ZM1003.67 266.1C1008.97 266.1 1013.72 267.1 1017.92 269.1C1022.22 271.1 1025.87 274.15 1028.87 278.25H1029.62L1031.42 267.6H1041.92V349.35C1041.92 360.85 1038.97 369.5 1033.07 375.3C1027.27 381.1 1018.22 384 1005.92 384C994.117 384 984.467 382.3 976.967 378.9V366.75C984.867 370.95 994.767 373.05 1006.67 373.05C1013.57 373.05 1018.97 371 1022.87 366.9C1026.87 362.9 1028.87 357.4 1028.87 350.4V347.25C1028.87 346.05 1028.92 344.35 1029.02 342.15C1029.12 339.85 1029.22 338.25 1029.32 337.35H1028.72C1023.32 345.45 1015.02 349.5 1003.82 349.5C993.417 349.5 985.267 345.85 979.367 338.55C973.567 331.25 970.667 321.05 970.667 307.95C970.667 295.15 973.567 285 979.367 277.5C985.267 269.9 993.367 266.1 1003.67 266.1ZM1005.47 277.2C998.767 277.2 993.567 279.9 989.867 285.3C986.167 290.6 984.317 298.2 984.317 308.1C984.317 318 986.117 325.6 989.717 330.9C993.417 336.1 998.767 338.7 1005.77 338.7C1013.87 338.7 1019.77 336.55 1023.47 332.25C1027.17 327.85 1029.02 320.8 1029.02 311.1V307.95C1029.02 296.95 1027.12 289.1 1023.32 284.4C1019.52 279.6 1013.57 277.2 1005.47 277.2ZM1137.77 240.9C1151.07 240.9 1160.87 243.45 1167.17 248.55C1173.57 253.55 1176.77 261.15 1176.77 271.35C1176.77 277.05 1175.72 281.8 1173.62 285.6C1171.52 289.4 1168.82 292.45 1165.52 294.75C1162.32 296.95 1158.92 298.7 1155.32 300L1184.72 348H1168.97L1143.02 303.75H1121.72V348H1108.22V240.9H1137.77ZM1137.02 252.6H1121.72V292.35H1137.77C1146.47 292.35 1152.82 290.65 1156.82 287.25C1160.82 283.75 1162.82 278.65 1162.82 271.95C1162.82 264.95 1160.72 260 1156.52 257.1C1152.32 254.1 1145.82 252.6 1137.02 252.6ZM1230.78 266.1C1237.68 266.1 1243.58 267.6 1248.48 270.6C1253.48 273.6 1257.28 277.85 1259.88 283.35C1262.58 288.75 1263.93 295.1 1263.93 302.4V310.35H1208.88C1209.08 319.45 1211.38 326.4 1215.78 331.2C1220.28 335.9 1226.53 338.25 1234.53 338.25C1239.63 338.25 1244.13 337.8 1248.03 336.9C1252.03 335.9 1256.13 334.5 1260.33 332.7V344.25C1256.23 346.05 1252.18 347.35 1248.18 348.15C1244.18 349.05 1239.43 349.5 1233.93 349.5C1226.33 349.5 1219.58 347.95 1213.68 344.85C1207.88 341.75 1203.33 337.15 1200.03 331.05C1196.83 324.85 1195.23 317.3 1195.23 308.4C1195.23 299.6 1196.68 292.05 1199.58 285.75C1202.58 279.45 1206.73 274.6 1212.03 271.2C1217.43 267.8 1223.68 266.1 1230.78 266.1ZM1230.63 276.9C1224.33 276.9 1219.33 278.95 1215.63 283.05C1212.03 287.05 1209.88 292.65 1209.18 299.85H1250.13C1250.03 293.05 1248.43 287.55 1245.33 283.35C1242.23 279.05 1237.33 276.9 1230.63 276.9ZM1314.85 266.25C1324.65 266.25 1331.9 268.4 1336.6 272.7C1341.3 277 1343.65 283.85 1343.65 293.25V348H1334.05L1331.5 336.6H1330.9C1327.4 341 1323.7 344.25 1319.8 346.35C1316 348.45 1310.7 349.5 1303.9 349.5C1296.6 349.5 1290.55 347.6 1285.75 343.8C1280.95 339.9 1278.55 333.85 1278.55 325.65C1278.55 317.65 1281.7 311.5 1288 307.2C1294.3 302.8 1304 300.4 1317.1 300L1330.75 299.55V294.75C1330.75 288.05 1329.3 283.4 1326.4 280.8C1323.5 278.2 1319.4 276.9 1314.1 276.9C1309.9 276.9 1305.9 277.55 1302.1 278.85C1298.3 280.05 1294.75 281.45 1291.45 283.05L1287.4 273.15C1290.9 271.25 1295.05 269.65 1299.85 268.35C1304.65 266.95 1309.65 266.25 1314.85 266.25ZM1318.75 309.15C1308.75 309.55 1301.8 311.15 1297.9 313.95C1294.1 316.75 1292.2 320.7 1292.2 325.8C1292.2 330.3 1293.55 333.6 1296.25 335.7C1299.05 337.8 1302.6 338.85 1306.9 338.85C1313.7 338.85 1319.35 337 1323.85 333.3C1328.35 329.5 1330.6 323.7 1330.6 315.9V308.7L1318.75 309.15ZM1400.73 349.5C1393.63 349.5 1387.28 348.05 1381.68 345.15C1376.18 342.25 1371.83 337.75 1368.63 331.65C1365.53 325.55 1363.98 317.75 1363.98 308.25C1363.98 298.35 1365.63 290.3 1368.93 284.1C1372.23 277.9 1376.68 273.35 1382.28 270.45C1387.98 267.55 1394.43 266.1 1401.63 266.1C1405.73 266.1 1409.68 266.55 1413.48 267.45C1417.28 268.25 1420.38 269.25 1422.78 270.45L1418.73 281.4C1416.33 280.5 1413.53 279.65 1410.33 278.85C1407.13 278.05 1404.13 277.65 1401.33 277.65C1385.53 277.65 1377.63 287.8 1377.63 308.1C1377.63 317.8 1379.53 325.25 1383.33 330.45C1387.23 335.55 1392.98 338.1 1400.58 338.1C1404.98 338.1 1408.83 337.65 1412.13 336.75C1415.53 335.85 1418.63 334.75 1421.43 333.45V345.15C1418.73 346.55 1415.73 347.6 1412.43 348.3C1409.23 349.1 1405.33 349.5 1400.73 349.5ZM1467.4 338.7C1469.4 338.7 1471.45 338.55 1473.55 338.25C1475.65 337.85 1477.35 337.45 1478.65 337.05V347.1C1477.25 347.8 1475.25 348.35 1472.65 348.75C1470.05 349.25 1467.55 349.5 1465.15 349.5C1460.95 349.5 1457.05 348.8 1453.45 347.4C1449.95 345.9 1447.1 343.35 1444.9 339.75C1442.7 336.15 1441.6 331.1 1441.6 324.6V277.8H1430.2V271.5L1441.75 266.25L1447 249.15H1454.8V267.6H1478.05V277.8H1454.8V324.3C1454.8 329.2 1455.95 332.85 1458.25 335.25C1460.65 337.55 1463.7 338.7 1467.4 338.7ZM1510.8 332.25C1509.5 337.55 1507.6 343.35 1505.1 349.65C1502.7 356.05 1500.3 361.95 1497.9 367.35H1488.15C1489.55 361.65 1490.95 355.4 1492.35 348.6C1493.85 341.8 1494.95 335.8 1495.65 330.6H1509.75L1510.8 332.25ZM312.576 552H299.076V456.75H265.626V444.9H345.876V456.75H312.576V552ZM344.696 471.6H358.796L376.196 517.35C377.696 521.35 379.046 525.2 380.246 528.9C381.446 532.5 382.346 535.95 382.946 539.25H383.546C384.146 536.75 385.096 533.5 386.396 529.5C387.696 525.4 389.046 521.3 390.446 517.2L406.796 471.6H421.046L386.396 563.1C383.596 570.7 379.946 576.75 375.446 581.25C371.046 585.75 364.946 588 357.146 588C354.746 588 352.646 587.85 350.846 587.55C349.046 587.35 347.496 587.1 346.196 586.8V576.3C347.296 576.5 348.596 576.7 350.096 576.9C351.696 577.1 353.346 577.2 355.046 577.2C359.646 577.2 363.346 575.9 366.146 573.3C369.046 570.7 371.296 567.25 372.896 562.95L377.096 552.3L344.696 471.6ZM472.011 470.1C481.911 470.1 489.861 473.55 495.861 480.45C501.961 487.35 505.011 497.75 505.011 511.65C505.011 525.35 501.961 535.75 495.861 542.85C489.861 549.95 481.861 553.5 471.861 553.5C465.661 553.5 460.511 552.35 456.411 550.05C452.411 547.65 449.261 544.9 446.961 541.8H446.061C446.261 543.5 446.461 545.65 446.661 548.25C446.861 550.85 446.961 553.1 446.961 555V588H433.761V471.6H444.561L446.361 482.55H446.961C449.361 479.05 452.511 476.1 456.411 473.7C460.311 471.3 465.511 470.1 472.011 470.1ZM469.611 481.2C461.411 481.2 455.611 483.5 452.211 488.1C448.911 492.7 447.161 499.7 446.961 509.1V511.65C446.961 521.55 448.561 529.2 451.761 534.6C455.061 539.9 461.111 542.55 469.911 542.55C474.811 542.55 478.811 541.2 481.911 538.5C485.111 535.8 487.461 532.15 488.961 527.55C490.561 522.85 491.361 517.5 491.361 511.5C491.361 502.3 489.561 494.95 485.961 489.45C482.461 483.95 477.011 481.2 469.611 481.2ZM557.096 470.1C563.996 470.1 569.896 471.6 574.796 474.6C579.796 477.6 583.596 481.85 586.196 487.35C588.896 492.75 590.246 499.1 590.246 506.4V514.35H535.196C535.396 523.45 537.696 530.4 542.096 535.2C546.596 539.9 552.846 542.25 560.846 542.25C565.946 542.25 570.446 541.8 574.346 540.9C578.346 539.9 582.446 538.5 586.646 536.7V548.25C582.546 550.05 578.496 551.35 574.496 552.15C570.496 553.05 565.746 553.5 560.246 553.5C552.646 553.5 545.896 551.95 539.996 548.85C534.196 545.75 529.646 541.15 526.346 535.05C523.146 528.85 521.546 521.3 521.546 512.4C521.546 503.6 522.996 496.05 525.896 489.75C528.896 483.45 533.046 478.6 538.346 475.2C543.746 471.8 549.996 470.1 557.096 470.1ZM556.946 480.9C550.646 480.9 545.646 482.95 541.946 487.05C538.346 491.05 536.196 496.65 535.496 503.85H576.446C576.346 497.05 574.746 491.55 571.646 487.35C568.546 483.05 563.646 480.9 556.946 480.9ZM673.264 523.35C673.264 532.85 669.814 540.25 662.914 545.55C656.014 550.85 646.714 553.5 635.014 553.5C629.014 553.5 623.464 553.05 618.364 552.15C613.264 551.25 609.014 550 605.614 548.4V535.5C609.214 537.1 613.664 538.55 618.964 539.85C624.364 541.15 629.914 541.8 635.614 541.8C643.614 541.8 649.614 540.25 653.614 537.15C657.714 534.05 659.764 529.85 659.764 524.55C659.764 521.05 659.014 518.1 657.514 515.7C656.014 513.3 653.414 511.1 649.714 509.1C646.114 507 641.064 504.8 634.564 502.5C625.464 499.2 618.564 495.15 613.864 490.35C609.264 485.55 606.964 479 606.964 470.7C606.964 465 608.414 460.15 611.314 456.15C614.214 452.05 618.214 448.9 623.314 446.7C628.514 444.5 634.464 443.4 641.164 443.4C647.064 443.4 652.464 443.95 657.364 445.05C662.264 446.15 666.714 447.6 670.714 449.4L666.514 460.95C662.814 459.35 658.764 458 654.364 456.9C650.064 455.8 645.564 455.25 640.864 455.25C634.164 455.25 629.114 456.7 625.714 459.6C622.314 462.4 620.614 466.15 620.614 470.85C620.614 474.45 621.364 477.45 622.864 479.85C624.364 482.25 626.814 484.4 630.214 486.3C633.614 488.2 638.214 490.25 644.014 492.45C650.314 494.75 655.614 497.25 659.914 499.95C664.314 502.55 667.614 505.7 669.814 509.4C672.114 513.1 673.264 517.75 673.264 523.35ZM725.288 553.5C718.188 553.5 711.838 552.05 706.238 549.15C700.738 546.25 696.388 541.75 693.188 535.65C690.088 529.55 688.538 521.75 688.538 512.25C688.538 502.35 690.188 494.3 693.488 488.1C696.788 481.9 701.238 477.35 706.838 474.45C712.538 471.55 718.988 470.1 726.188 470.1C730.288 470.1 734.238 470.55 738.038 471.45C741.838 472.25 744.938 473.25 747.338 474.45L743.288 485.4C740.888 484.5 738.088 483.65 734.888 482.85C731.688 482.05 728.688 481.65 725.888 481.65C710.088 481.65 702.188 491.8 702.188 512.1C702.188 521.8 704.088 529.25 707.888 534.45C711.788 539.55 717.538 542.1 725.138 542.1C729.538 542.1 733.388 541.65 736.688 540.75C740.088 539.85 743.188 538.75 745.988 537.45V549.15C743.288 550.55 740.288 551.6 736.988 552.3C733.788 553.1 729.888 553.5 725.288 553.5ZM802.608 470.1C804.108 470.1 805.708 470.2 807.408 470.4C809.208 470.5 810.758 470.7 812.058 471L810.408 483.15C809.108 482.85 807.658 482.6 806.058 482.4C804.558 482.2 803.108 482.1 801.708 482.1C797.608 482.1 793.758 483.25 790.158 485.55C786.558 487.75 783.658 490.9 781.458 495C779.358 499 778.308 503.7 778.308 509.1V552H765.108V471.6H775.908L777.408 486.3H778.008C780.608 481.9 783.958 478.1 788.058 474.9C792.158 471.7 797.008 470.1 802.608 470.1ZM833.821 441.45C835.821 441.45 837.571 442.15 839.071 443.55C840.671 444.85 841.471 446.95 841.471 449.85C841.471 452.65 840.671 454.75 839.071 456.15C837.571 457.55 835.821 458.25 833.821 458.25C831.621 458.25 829.771 457.55 828.271 456.15C826.771 454.75 826.021 452.65 826.021 449.85C826.021 446.95 826.771 444.85 828.271 443.55C829.771 442.15 831.621 441.45 833.821 441.45ZM840.271 471.6V552H827.071V471.6H840.271ZM903.993 470.1C913.893 470.1 921.843 473.55 927.843 480.45C933.943 487.35 936.993 497.75 936.993 511.65C936.993 525.35 933.943 535.75 927.843 542.85C921.843 549.95 913.843 553.5 903.843 553.5C897.643 553.5 892.493 552.35 888.393 550.05C884.393 547.65 881.243 544.9 878.943 541.8H878.043C878.243 543.5 878.443 545.65 878.643 548.25C878.843 550.85 878.943 553.1 878.943 555V588H865.743V471.6H876.543L878.343 482.55H878.943C881.343 479.05 884.493 476.1 888.393 473.7C892.293 471.3 897.493 470.1 903.993 470.1ZM901.593 481.2C893.393 481.2 887.593 483.5 884.193 488.1C880.893 492.7 879.143 499.7 878.943 509.1V511.65C878.943 521.55 880.543 529.2 883.743 534.6C887.043 539.9 893.093 542.55 901.893 542.55C906.793 542.55 910.793 541.2 913.893 538.5C917.093 535.8 919.443 532.15 920.943 527.55C922.543 522.85 923.343 517.5 923.343 511.5C923.343 502.3 921.543 494.95 917.943 489.45C914.443 483.95 908.993 481.2 901.593 481.2ZM984.878 542.7C986.878 542.7 988.928 542.55 991.028 542.25C993.128 541.85 994.828 541.45 996.128 541.05V551.1C994.728 551.8 992.728 552.35 990.128 552.75C987.528 553.25 985.028 553.5 982.628 553.5C978.428 553.5 974.528 552.8 970.928 551.4C967.428 549.9 964.578 547.35 962.378 543.75C960.178 540.15 959.078 535.1 959.078 528.6V481.8H947.678V475.5L959.228 470.25L964.478 453.15H972.278V471.6H995.528V481.8H972.278V528.3C972.278 533.2 973.428 536.85 975.728 539.25C978.128 541.55 981.178 542.7 984.878 542.7ZM1028.28 536.25C1026.98 541.55 1025.08 547.35 1022.58 553.65C1020.18 560.05 1017.78 565.95 1015.38 571.35H1005.63C1007.03 565.65 1008.43 559.4 1009.83 552.6C1011.33 545.8 1012.43 539.8 1013.13 534.6H1027.23L1028.28 536.25ZM1178.03 552H1162.28L1104.98 463.05H1104.38C1104.58 466.55 1104.83 470.9 1105.13 476.1C1105.43 481.3 1105.58 486.65 1105.58 492.15V552H1093.13V444.9H1108.73L1165.88 533.55H1166.48C1166.38 531.95 1166.23 529.55 1166.03 526.35C1165.93 523.15 1165.78 519.65 1165.58 515.85C1165.48 512.05 1165.43 508.55 1165.43 505.35V444.9H1178.03V552ZM1275.19 511.65C1275.19 524.95 1271.79 535.25 1264.99 542.55C1258.29 549.85 1249.19 553.5 1237.69 553.5C1230.59 553.5 1224.24 551.9 1218.64 548.7C1213.14 545.4 1208.79 540.65 1205.59 534.45C1202.39 528.15 1200.79 520.55 1200.79 511.65C1200.79 498.35 1204.14 488.1 1210.84 480.9C1217.54 473.7 1226.64 470.1 1238.14 470.1C1245.44 470.1 1251.84 471.75 1257.34 475.05C1262.94 478.25 1267.29 482.95 1270.39 489.15C1273.59 495.25 1275.19 502.75 1275.19 511.65ZM1214.44 511.65C1214.44 521.15 1216.29 528.7 1219.99 534.3C1223.79 539.8 1229.79 542.55 1237.99 542.55C1246.09 542.55 1252.04 539.8 1255.84 534.3C1259.64 528.7 1261.54 521.15 1261.54 511.65C1261.54 502.15 1259.64 494.7 1255.84 489.3C1252.04 483.9 1246.04 481.2 1237.84 481.2C1229.64 481.2 1223.69 483.9 1219.99 489.3C1216.29 494.7 1214.44 502.15 1214.44 511.65ZM1324.61 553.5C1314.61 553.5 1306.61 550.05 1300.61 543.15C1294.61 536.15 1291.61 525.75 1291.61 511.95C1291.61 498.15 1294.61 487.75 1300.61 480.75C1306.71 473.65 1314.76 470.1 1324.76 470.1C1330.96 470.1 1336.01 471.25 1339.91 473.55C1343.91 475.85 1347.16 478.65 1349.66 481.95H1350.56C1350.46 480.65 1350.26 478.75 1349.96 476.25C1349.76 473.65 1349.66 471.6 1349.66 470.1V438H1362.86V552H1352.21L1350.26 541.2H1349.66C1347.26 544.6 1344.06 547.5 1340.06 549.9C1336.06 552.3 1330.91 553.5 1324.61 553.5ZM1326.71 542.55C1335.21 542.55 1341.16 540.25 1344.56 535.65C1348.06 530.95 1349.81 523.9 1349.81 514.5V512.1C1349.81 502.1 1348.16 494.45 1344.86 489.15C1341.56 483.75 1335.46 481.05 1326.56 481.05C1319.46 481.05 1314.11 483.9 1310.51 489.6C1307.01 495.2 1305.26 502.75 1305.26 512.25C1305.26 521.85 1307.01 529.3 1310.51 534.6C1314.11 539.9 1319.51 542.55 1326.71 542.55ZM1419.45 470.1C1426.35 470.1 1432.25 471.6 1437.15 474.6C1442.15 477.6 1445.95 481.85 1448.55 487.35C1451.25 492.75 1452.6 499.1 1452.6 506.4V514.35H1397.55C1397.75 523.45 1400.05 530.4 1404.45 535.2C1408.95 539.9 1415.2 542.25 1423.2 542.25C1428.3 542.25 1432.8 541.8 1436.7 540.9C1440.7 539.9 1444.8 538.5 1449 536.7V548.25C1444.9 550.05 1440.85 551.35 1436.85 552.15C1432.85 553.05 1428.1 553.5 1422.6 553.5C1415 553.5 1408.25 551.95 1402.35 548.85C1396.55 545.75 1392 541.15 1388.7 535.05C1385.5 528.85 1383.9 521.3 1383.9 512.4C1383.9 503.6 1385.35 496.05 1388.25 489.75C1391.25 483.45 1395.4 478.6 1400.7 475.2C1406.1 471.8 1412.35 470.1 1419.45 470.1ZM1419.3 480.9C1413 480.9 1408 482.95 1404.3 487.05C1400.7 491.05 1398.55 496.65 1397.85 503.85H1438.8C1438.7 497.05 1437.1 491.55 1434 487.35C1430.9 483.05 1426 480.9 1419.3 480.9ZM1471.12 543.9C1471.12 540.2 1472.02 537.6 1473.82 536.1C1475.62 534.6 1477.77 533.85 1480.27 533.85C1482.87 533.85 1485.07 534.6 1486.87 536.1C1488.77 537.6 1489.72 540.2 1489.72 543.9C1489.72 547.5 1488.77 550.1 1486.87 551.7C1485.07 553.3 1482.87 554.1 1480.27 554.1C1477.77 554.1 1475.62 553.3 1473.82 551.7C1472.02 550.1 1471.12 547.5 1471.12 543.9ZM1512.15 449.85C1512.15 446.95 1512.9 444.85 1514.4 443.55C1515.9 442.15 1517.75 441.45 1519.95 441.45C1521.95 441.45 1523.7 442.15 1525.2 443.55C1526.8 444.85 1527.6 446.95 1527.6 449.85C1527.6 452.65 1526.8 454.75 1525.2 456.15C1523.7 457.55 1521.95 458.25 1519.95 458.25C1517.75 458.25 1515.9 457.55 1514.4 456.15C1512.9 454.75 1512.15 452.65 1512.15 449.85ZM1503.75 588C1501.25 588 1499.05 587.8 1497.15 587.4C1495.25 587.1 1493.6 586.7 1492.2 586.2V575.55C1493.7 575.95 1495.25 576.3 1496.85 576.6C1498.45 576.9 1500.2 577.05 1502.1 577.05C1505.3 577.05 1507.95 576.15 1510.05 574.35C1512.15 572.65 1513.2 569.35 1513.2 564.45V471.6H1526.4V564C1526.4 571.5 1524.6 577.35 1521 581.55C1517.4 585.85 1511.65 588 1503.75 588ZM1604.23 529.8C1604.23 537.6 1601.33 543.5 1595.53 547.5C1589.73 551.5 1581.93 553.5 1572.13 553.5C1566.53 553.5 1561.68 553.05 1557.58 552.15C1553.58 551.25 1550.03 550 1546.93 548.4V536.4C1550.13 538 1553.98 539.5 1558.48 540.9C1563.08 542.2 1567.73 542.85 1572.43 542.85C1579.13 542.85 1583.98 541.8 1586.98 539.7C1589.98 537.5 1591.48 534.6 1591.48 531C1591.48 529 1590.93 527.2 1589.83 525.6C1588.73 524 1586.73 522.4 1583.83 520.8C1581.03 519.2 1576.98 517.4 1571.68 515.4C1566.48 513.4 1562.03 511.4 1558.33 509.4C1554.63 507.4 1551.78 505 1549.78 502.2C1547.78 499.4 1546.78 495.8 1546.78 491.4C1546.78 484.6 1549.53 479.35 1555.03 475.65C1560.63 471.95 1567.93 470.1 1576.93 470.1C1581.83 470.1 1586.38 470.6 1590.58 471.6C1594.88 472.5 1598.88 473.8 1602.58 475.5L1598.08 486C1594.68 484.6 1591.13 483.4 1587.43 482.4C1583.73 481.4 1579.93 480.9 1576.03 480.9C1570.63 480.9 1566.48 481.8 1563.58 483.6C1560.78 485.3 1559.38 487.65 1559.38 490.65C1559.38 492.85 1560.03 494.75 1561.33 496.35C1562.63 497.85 1564.78 499.35 1567.78 500.85C1570.88 502.25 1574.98 503.95 1580.08 505.95C1585.18 507.85 1589.53 509.8 1593.13 511.8C1596.73 513.8 1599.48 516.25 1601.38 519.15C1603.28 521.95 1604.23 525.5 1604.23 529.8ZM1649.9 510.9C1649.9 523 1648.1 534.65 1644.5 545.85C1641 556.95 1635.45 566.9 1627.85 575.7H1615.55C1622.45 566.3 1627.65 556.05 1631.15 544.95C1634.75 533.75 1636.55 522.35 1636.55 510.75C1636.55 498.85 1634.75 487.25 1631.15 475.95C1627.65 464.65 1622.4 454.3 1615.4 444.9H1627.85C1635.45 454 1641 464.25 1644.5 475.65C1648.1 486.95 1649.9 498.7 1649.9 510.9Z" fill="#61DAFB"/>
    <path id="line1" d="M528.715 121.88C535.809 121.88 541.035 123.24 544.395 125.96C547.809 128.627 549.515 132.68 549.515 138.12C549.515 141.16 548.955 143.693 547.835 145.72C546.715 147.747 545.275 149.373 543.515 150.6C541.809 151.773 539.995 152.707 538.075 153.4L553.755 179H545.355L531.515 155.4H520.155V179H512.955V121.88H528.715ZM528.315 128.12H520.155V149.32H528.715C533.355 149.32 536.742 148.413 538.875 146.6C541.009 144.733 542.075 142.013 542.075 138.44C542.075 134.707 540.955 132.067 538.715 130.52C536.475 128.92 533.009 128.12 528.315 128.12ZM578.321 135.32C582.001 135.32 585.148 136.12 587.761 137.72C590.428 139.32 592.454 141.587 593.841 144.52C595.281 147.4 596.001 150.787 596.001 154.68V158.92H566.641C566.748 163.773 567.974 167.48 570.321 170.04C572.721 172.547 576.054 173.8 580.321 173.8C583.041 173.8 585.441 173.56 587.521 173.08C589.654 172.547 591.841 171.8 594.081 170.84V177C591.894 177.96 589.734 178.653 587.601 179.08C585.468 179.56 582.934 179.8 580.001 179.8C575.948 179.8 572.348 178.973 569.201 177.32C566.108 175.667 563.681 173.213 561.921 169.96C560.214 166.653 559.361 162.627 559.361 157.88C559.361 153.187 560.134 149.16 561.681 145.8C563.281 142.44 565.494 139.853 568.321 138.04C571.201 136.227 574.534 135.32 578.321 135.32ZM578.241 141.08C574.881 141.08 572.214 142.173 570.241 144.36C568.321 146.493 567.174 149.48 566.801 153.32H588.641C588.588 149.693 587.734 146.76 586.081 144.52C584.428 142.227 581.814 141.08 578.241 141.08ZM626.677 141.56H615.877V179H608.837V141.56H601.317V138.28L608.837 135.88V133.4C608.837 127.853 610.064 123.88 612.517 121.48C614.971 119.027 618.384 117.8 622.757 117.8C624.464 117.8 626.011 117.96 627.397 118.28C628.837 118.547 630.064 118.867 631.077 119.24L629.237 124.76C628.384 124.493 627.397 124.227 626.277 123.96C625.157 123.693 624.011 123.56 622.837 123.56C620.491 123.56 618.731 124.36 617.557 125.96C616.437 127.507 615.877 129.96 615.877 133.32V136.12H626.677V141.56ZM650.977 135.32C654.657 135.32 657.804 136.12 660.417 137.72C663.084 139.32 665.111 141.587 666.497 144.52C667.937 147.4 668.657 150.787 668.657 154.68V158.92H639.297C639.404 163.773 640.631 167.48 642.977 170.04C645.377 172.547 648.711 173.8 652.977 173.8C655.697 173.8 658.097 173.56 660.177 173.08C662.311 172.547 664.497 171.8 666.737 170.84V177C664.551 177.96 662.391 178.653 660.257 179.08C658.124 179.56 655.591 179.8 652.657 179.8C648.604 179.8 645.004 178.973 641.857 177.32C638.764 175.667 636.337 173.213 634.577 169.96C632.871 166.653 632.017 162.627 632.017 157.88C632.017 153.187 632.791 149.16 634.337 145.8C635.937 142.44 638.151 139.853 640.977 138.04C643.857 136.227 647.191 135.32 650.977 135.32ZM650.897 141.08C647.537 141.08 644.871 142.173 642.897 144.36C640.977 146.493 639.831 149.48 639.457 153.32H661.297C661.244 149.693 660.391 146.76 658.737 144.52C657.084 142.227 654.471 141.08 650.897 141.08ZM699.573 135.32C700.373 135.32 701.227 135.373 702.133 135.48C703.093 135.533 703.92 135.64 704.613 135.8L703.733 142.28C703.04 142.12 702.267 141.987 701.413 141.88C700.613 141.773 699.84 141.72 699.093 141.72C696.907 141.72 694.853 142.333 692.933 143.56C691.013 144.733 689.467 146.413 688.293 148.6C687.173 150.733 686.613 153.24 686.613 156.12V179H679.573V136.12H685.333L686.133 143.96H686.453C687.84 141.613 689.627 139.587 691.813 137.88C694 136.173 696.587 135.32 699.573 135.32ZM727.618 135.32C731.298 135.32 734.444 136.12 737.058 137.72C739.724 139.32 741.751 141.587 743.138 144.52C744.578 147.4 745.298 150.787 745.298 154.68V158.92H715.938C716.044 163.773 717.271 167.48 719.618 170.04C722.018 172.547 725.351 173.8 729.618 173.8C732.338 173.8 734.738 173.56 736.818 173.08C738.951 172.547 741.138 171.8 743.378 170.84V177C741.191 177.96 739.031 178.653 736.898 179.08C734.764 179.56 732.231 179.8 729.298 179.8C725.244 179.8 721.644 178.973 718.498 177.32C715.404 175.667 712.978 173.213 711.218 169.96C709.511 166.653 708.658 162.627 708.658 157.88C708.658 153.187 709.431 149.16 710.978 145.8C712.578 142.44 714.791 139.853 717.618 138.04C720.498 136.227 723.831 135.32 727.618 135.32ZM727.538 141.08C724.178 141.08 721.511 142.173 719.538 144.36C717.618 146.493 716.471 149.48 716.098 153.32H737.938C737.884 149.693 737.031 146.76 735.378 144.52C733.724 142.227 731.111 141.08 727.538 141.08ZM776.854 135.32C781.974 135.32 785.841 136.573 788.454 139.08C791.067 141.533 792.374 145.533 792.374 151.08V179H785.414V151.56C785.414 144.68 782.214 141.24 775.814 141.24C771.067 141.24 767.787 142.573 765.974 145.24C764.161 147.907 763.254 151.747 763.254 156.76V179H756.214V136.12H761.894L762.934 141.96H763.334C764.721 139.72 766.641 138.067 769.094 137C771.547 135.88 774.134 135.32 776.854 135.32ZM822.867 179.8C819.081 179.8 815.694 179.027 812.707 177.48C809.774 175.933 807.454 173.533 805.747 170.28C804.094 167.027 803.267 162.867 803.267 157.8C803.267 152.52 804.147 148.227 805.907 144.92C807.667 141.613 810.041 139.187 813.027 137.64C816.067 136.093 819.507 135.32 823.347 135.32C825.534 135.32 827.641 135.56 829.667 136.04C831.694 136.467 833.347 137 834.627 137.64L832.467 143.48C831.187 143 829.694 142.547 827.987 142.12C826.281 141.693 824.681 141.48 823.187 141.48C814.761 141.48 810.547 146.893 810.547 157.72C810.547 162.893 811.561 166.867 813.587 169.64C815.667 172.36 818.734 173.72 822.787 173.72C825.134 173.72 827.187 173.48 828.947 173C830.761 172.52 832.414 171.933 833.907 171.24V177.48C832.467 178.227 830.867 178.787 829.107 179.16C827.401 179.587 825.321 179.8 822.867 179.8ZM860.665 135.32C864.345 135.32 867.491 136.12 870.105 137.72C872.771 139.32 874.798 141.587 876.185 144.52C877.625 147.4 878.345 150.787 878.345 154.68V158.92H848.985C849.091 163.773 850.318 167.48 852.665 170.04C855.065 172.547 858.398 173.8 862.665 173.8C865.385 173.8 867.785 173.56 869.865 173.08C871.998 172.547 874.185 171.8 876.425 170.84V177C874.238 177.96 872.078 178.653 869.945 179.08C867.811 179.56 865.278 179.8 862.345 179.8C858.291 179.8 854.691 178.973 851.545 177.32C848.451 175.667 846.025 173.213 844.265 169.96C842.558 166.653 841.705 162.627 841.705 157.88C841.705 153.187 842.478 149.16 844.025 145.8C845.625 142.44 847.838 139.853 850.665 138.04C853.545 136.227 856.878 135.32 860.665 135.32ZM860.585 141.08C857.225 141.08 854.558 142.173 852.585 144.36C850.665 146.493 849.518 149.48 849.145 153.32H870.985C870.931 149.693 870.078 146.76 868.425 144.52C866.771 142.227 864.158 141.08 860.585 141.08ZM917.082 136.04C917.082 138.173 916.949 140.173 916.682 142.04H917.162C918.549 139.853 920.416 138.2 922.762 137.08C925.162 135.96 927.749 135.4 930.522 135.4C935.749 135.4 939.669 136.653 942.282 139.16C944.896 141.613 946.202 145.587 946.202 151.08V179H939.242V151.56C939.242 144.68 936.042 141.24 929.642 141.24C924.842 141.24 921.536 142.6 919.722 145.32C917.962 147.987 917.082 151.827 917.082 156.84V179H910.042V118.2H917.082V136.04ZM975.735 135.4C980.962 135.4 984.829 136.547 987.335 138.84C989.842 141.133 991.095 144.787 991.095 149.8V179H985.975L984.615 172.92H984.295C982.429 175.267 980.455 177 978.375 178.12C976.349 179.24 973.522 179.8 969.895 179.8C966.002 179.8 962.775 178.787 960.215 176.76C957.655 174.68 956.375 171.453 956.375 167.08C956.375 162.813 958.055 159.533 961.415 157.24C964.775 154.893 969.949 153.613 976.935 153.4L984.215 153.16V150.6C984.215 147.027 983.442 144.547 981.895 143.16C980.349 141.773 978.162 141.08 975.335 141.08C973.095 141.08 970.962 141.427 968.935 142.12C966.909 142.76 965.015 143.507 963.255 144.36L961.095 139.08C962.962 138.067 965.175 137.213 967.735 136.52C970.295 135.773 972.962 135.4 975.735 135.4ZM977.815 158.28C972.482 158.493 968.775 159.347 966.695 160.84C964.669 162.333 963.655 164.44 963.655 167.16C963.655 169.56 964.375 171.32 965.815 172.44C967.309 173.56 969.202 174.12 971.495 174.12C975.122 174.12 978.135 173.133 980.535 171.16C982.935 169.133 984.135 166.04 984.135 161.88V158.04L977.815 158.28ZM1024.98 135.32C1030.1 135.32 1033.97 136.573 1036.58 139.08C1039.19 141.533 1040.5 145.533 1040.5 151.08V179H1033.54V151.56C1033.54 144.68 1030.34 141.24 1023.94 141.24C1019.19 141.24 1015.91 142.573 1014.1 145.24C1012.29 147.907 1011.38 151.747 1011.38 156.76V179H1004.34V136.12H1010.02L1011.06 141.96H1011.46C1012.85 139.72 1014.77 138.067 1017.22 137C1019.67 135.88 1022.26 135.32 1024.98 135.32ZM1068.99 179.8C1063.66 179.8 1059.39 177.96 1056.19 174.28C1052.99 170.547 1051.39 165 1051.39 157.64C1051.39 150.28 1052.99 144.733 1056.19 141C1059.45 137.213 1063.74 135.32 1069.07 135.32C1072.38 135.32 1075.07 135.933 1077.15 137.16C1079.29 138.387 1081.02 139.88 1082.35 141.64H1082.83C1082.78 140.947 1082.67 139.933 1082.51 138.6C1082.41 137.213 1082.35 136.12 1082.35 135.32V118.2H1089.39V179H1083.71L1082.67 173.24H1082.35C1081.07 175.053 1079.37 176.6 1077.23 177.88C1075.1 179.16 1072.35 179.8 1068.99 179.8ZM1070.11 173.96C1074.65 173.96 1077.82 172.733 1079.63 170.28C1081.5 167.773 1082.43 164.013 1082.43 159V157.72C1082.43 152.387 1081.55 148.307 1079.79 145.48C1078.03 142.6 1074.78 141.16 1070.03 141.16C1066.25 141.16 1063.39 142.68 1061.47 145.72C1059.61 148.707 1058.67 152.733 1058.67 157.8C1058.67 162.92 1059.61 166.893 1061.47 169.72C1063.39 172.547 1066.27 173.96 1070.11 173.96ZM1110.05 133C1110.05 134.813 1110 136.52 1109.89 138.12C1109.84 139.667 1109.76 140.893 1109.65 141.8H1110.05C1111.28 139.987 1112.96 138.467 1115.09 137.24C1117.22 136.013 1119.97 135.4 1123.33 135.4C1128.66 135.4 1132.93 137.267 1136.13 141C1139.38 144.68 1141.01 150.2 1141.01 157.56C1141.01 164.92 1139.38 170.467 1136.13 174.2C1132.88 177.933 1128.61 179.8 1123.33 179.8C1119.97 179.8 1117.22 179.187 1115.09 177.96C1112.96 176.733 1111.28 175.267 1110.05 173.56H1109.49L1108.05 179H1103.01V118.2H1110.05V133ZM1122.13 141.24C1117.6 141.24 1114.45 142.547 1112.69 145.16C1110.93 147.773 1110.05 151.827 1110.05 157.32V157.64C1110.05 162.92 1110.9 166.973 1112.61 169.8C1114.37 172.573 1117.6 173.96 1122.29 173.96C1126.13 173.96 1128.98 172.547 1130.85 169.72C1132.77 166.893 1133.73 162.813 1133.73 157.48C1133.73 146.653 1129.86 141.24 1122.13 141.24ZM1189.51 157.48C1189.51 164.573 1187.7 170.067 1184.07 173.96C1180.5 177.853 1175.64 179.8 1169.51 179.8C1165.72 179.8 1162.34 178.947 1159.35 177.24C1156.42 175.48 1154.1 172.947 1152.39 169.64C1150.68 166.28 1149.83 162.227 1149.83 157.48C1149.83 150.387 1151.62 144.92 1155.19 141.08C1158.76 137.24 1163.62 135.32 1169.75 135.32C1173.64 135.32 1177.06 136.2 1179.99 137.96C1182.98 139.667 1185.3 142.173 1186.95 145.48C1188.66 148.733 1189.51 152.733 1189.51 157.48ZM1157.11 157.48C1157.11 162.547 1158.1 166.573 1160.07 169.56C1162.1 172.493 1165.3 173.96 1169.67 173.96C1173.99 173.96 1177.16 172.493 1179.19 169.56C1181.22 166.573 1182.23 162.547 1182.23 157.48C1182.23 152.413 1181.22 148.44 1179.19 145.56C1177.16 142.68 1173.96 141.24 1169.59 141.24C1165.22 141.24 1162.04 142.68 1160.07 145.56C1158.1 148.44 1157.11 152.413 1157.11 157.48ZM1237.95 157.48C1237.95 164.573 1236.13 170.067 1232.51 173.96C1228.93 177.853 1224.08 179.8 1217.95 179.8C1214.16 179.8 1210.77 178.947 1207.79 177.24C1204.85 175.48 1202.53 172.947 1200.83 169.64C1199.12 166.28 1198.27 162.227 1198.27 157.48C1198.27 150.387 1200.05 144.92 1203.63 141.08C1207.2 137.24 1212.05 135.32 1218.19 135.32C1222.08 135.32 1225.49 136.2 1228.43 137.96C1231.41 139.667 1233.73 142.173 1235.39 145.48C1237.09 148.733 1237.95 152.733 1237.95 157.48ZM1205.55 157.48C1205.55 162.547 1206.53 166.573 1208.51 169.56C1210.53 172.493 1213.73 173.96 1218.11 173.96C1222.43 173.96 1225.6 172.493 1227.63 169.56C1229.65 166.573 1230.67 162.547 1230.67 157.48C1230.67 152.413 1229.65 148.44 1227.63 145.56C1225.6 142.68 1222.4 141.24 1218.03 141.24C1213.65 141.24 1210.48 142.68 1208.51 145.56C1206.53 148.44 1205.55 152.413 1205.55 157.48ZM1256.06 149.96C1256.06 150.813 1256.01 151.933 1255.9 153.32C1255.85 154.707 1255.8 155.907 1255.74 156.92H1256.06C1256.38 156.493 1256.86 155.88 1257.5 155.08C1258.14 154.28 1258.78 153.48 1259.42 152.68C1260.12 151.827 1260.7 151.133 1261.18 150.6L1274.86 136.12H1283.1L1265.74 154.44L1284.3 179H1275.82L1260.94 159L1256.06 163.24V179H1249.1V118.2H1256.06V149.96ZM1332.38 141.56H1321.58V179H1314.54V141.56H1307.02V138.28L1314.54 135.88V133.4C1314.54 127.853 1315.77 123.88 1318.22 121.48C1320.67 119.027 1324.09 117.8 1328.46 117.8C1330.17 117.8 1331.71 117.96 1333.1 118.28C1334.54 118.547 1335.77 118.867 1336.78 119.24L1334.94 124.76C1334.09 124.493 1333.1 124.227 1331.98 123.96C1330.86 123.693 1329.71 123.56 1328.54 123.56C1326.19 123.56 1324.43 124.36 1323.26 125.96C1322.14 127.507 1321.58 129.96 1321.58 133.32V136.12H1332.38V141.56ZM1377.4 157.48C1377.4 164.573 1375.59 170.067 1371.96 173.96C1368.39 177.853 1363.53 179.8 1357.4 179.8C1353.61 179.8 1350.23 178.947 1347.24 177.24C1344.31 175.48 1341.99 172.947 1340.28 169.64C1338.57 166.28 1337.72 162.227 1337.72 157.48C1337.72 150.387 1339.51 144.92 1343.08 141.08C1346.65 137.24 1351.51 135.32 1357.64 135.32C1361.53 135.32 1364.95 136.2 1367.88 137.96C1370.87 139.667 1373.19 142.173 1374.84 145.48C1376.55 148.733 1377.4 152.733 1377.4 157.48ZM1345 157.48C1345 162.547 1345.99 166.573 1347.96 169.56C1349.99 172.493 1353.19 173.96 1357.56 173.96C1361.88 173.96 1365.05 172.493 1367.08 169.56C1369.11 166.573 1370.12 162.547 1370.12 157.48C1370.12 152.413 1369.11 148.44 1367.08 145.56C1365.05 142.68 1361.85 141.24 1357.48 141.24C1353.11 141.24 1349.93 142.68 1347.96 145.56C1345.99 148.44 1345 152.413 1345 157.48ZM1408.56 135.32C1409.36 135.32 1410.21 135.373 1411.12 135.48C1412.08 135.533 1412.9 135.64 1413.6 135.8L1412.72 142.28C1412.02 142.12 1411.25 141.987 1410.4 141.88C1409.6 141.773 1408.82 141.72 1408.08 141.72C1405.89 141.72 1403.84 142.333 1401.92 143.56C1400 144.733 1398.45 146.413 1397.28 148.6C1396.16 150.733 1395.6 153.24 1395.6 156.12V179H1388.56V136.12H1394.32L1395.12 143.96H1395.44C1396.82 141.613 1398.61 139.587 1400.8 137.88C1402.98 136.173 1405.57 135.32 1408.56 135.32Z" fill="#9B9B9B"/>
    <g id="react-logo">
      <path id="Vector" d="M505.32 815.981C505.32 795.755 479.99 776.587 441.156 764.7C450.118 725.12 446.135 693.629 428.585 683.547C424.54 681.182 419.81 680.062 414.645 680.062V693.94C417.508 693.94 419.81 694.501 421.739 695.558C430.203 700.413 433.875 718.896 431.012 742.67C430.328 748.52 429.208 754.681 427.838 760.966C415.641 757.979 402.322 755.676 388.32 754.183C379.918 742.67 371.206 732.214 362.431 723.066C382.719 704.209 401.762 693.878 414.707 693.878V680C397.593 680 375.188 692.198 352.535 713.357C329.882 692.322 307.478 680.249 290.364 680.249V694.127C303.246 694.127 322.352 704.396 342.64 723.128C333.927 732.276 325.215 742.67 316.938 754.183C302.873 755.676 289.555 757.979 277.357 761.029C275.925 754.805 274.867 748.768 274.121 742.981C271.196 719.207 274.805 700.724 283.207 695.807C285.074 694.687 287.501 694.189 290.364 694.189V680.311C285.136 680.311 280.406 681.431 276.299 683.796C258.811 693.878 254.89 725.306 263.914 764.763C225.205 776.712 200 795.817 200 815.981C200 836.207 225.329 855.375 264.163 867.262C255.201 906.843 259.184 938.333 276.734 948.415C280.78 950.78 285.509 951.9 290.737 951.9C307.851 951.9 330.256 939.702 352.909 918.543C375.562 939.578 397.966 951.651 415.08 951.651C420.308 951.651 425.038 950.531 429.145 948.166C446.633 938.084 450.554 906.656 441.53 867.2C480.115 855.313 505.32 836.145 505.32 815.981ZM424.291 774.471C421.988 782.499 419.126 790.776 415.889 799.053C413.338 794.075 410.662 789.096 407.737 784.117C404.874 779.139 401.825 774.284 398.775 769.555C407.612 770.862 416.138 772.48 424.291 774.471ZM395.788 840.75C390.934 849.152 385.955 857.118 380.79 864.524C371.517 865.333 362.119 865.768 352.66 865.768C343.262 865.768 333.865 865.333 324.655 864.586C319.489 857.18 314.448 849.276 309.594 840.937C304.864 832.784 300.57 824.507 296.649 816.168C300.508 807.828 304.864 799.489 309.532 791.336C314.386 782.935 319.365 774.969 324.53 767.563C333.803 766.754 343.2 766.318 352.66 766.318C362.057 766.318 371.454 766.754 380.665 767.501C385.83 774.907 390.871 782.81 395.726 791.15C400.455 799.302 404.75 807.58 408.67 815.919C404.75 824.258 400.455 832.598 395.788 840.75ZM415.889 832.66C419.25 840.999 422.113 849.339 424.478 857.429C416.325 859.42 407.737 861.101 398.837 862.408C401.887 857.616 404.936 852.699 407.799 847.658C410.662 842.679 413.338 837.639 415.889 832.66ZM352.784 899.063C346.997 893.089 341.209 886.43 335.483 879.149C341.084 879.397 346.81 879.584 352.598 879.584C358.448 879.584 364.235 879.46 369.899 879.149C364.298 886.43 358.51 893.089 352.784 899.063ZM306.482 862.408C297.645 861.101 289.119 859.483 280.966 857.491C283.269 849.463 286.132 841.186 289.368 832.909C291.92 837.887 294.596 842.866 297.521 847.845C300.446 852.824 303.433 857.678 306.482 862.408ZM352.473 732.899C358.261 738.873 364.049 745.532 369.774 752.814C364.173 752.565 358.448 752.378 352.66 752.378C346.81 752.378 341.022 752.503 335.359 752.814C340.96 745.532 346.748 738.873 352.473 732.899ZM306.42 769.555C303.371 774.347 300.321 779.263 297.458 784.304C294.596 789.283 291.92 794.261 289.368 799.24C286.007 790.901 283.145 782.562 280.78 774.471C288.932 772.542 297.521 770.862 306.42 769.555ZM250.098 847.471C228.068 838.074 213.816 825.752 213.816 815.981C213.816 806.21 228.068 793.826 250.098 784.491C255.45 782.188 261.3 780.134 267.337 778.205C270.884 790.403 275.552 803.099 281.34 816.106C275.614 829.05 271.009 841.684 267.524 853.819C261.363 851.89 255.513 849.774 250.098 847.471ZM283.58 936.404C275.116 931.55 271.445 913.066 274.307 889.293C274.992 883.443 276.112 877.282 277.481 870.996C289.679 873.983 302.997 876.286 317 877.779C325.401 889.293 334.114 899.748 342.889 908.896C322.601 927.753 303.557 938.084 290.613 938.084C287.812 938.022 285.447 937.462 283.58 936.404ZM431.199 888.982C434.124 912.755 430.514 931.238 422.113 936.155C420.246 937.275 417.819 937.773 414.956 937.773C402.074 937.773 382.968 927.504 362.679 908.772C371.392 899.624 380.105 889.23 388.382 877.717C402.447 876.224 415.765 873.921 427.963 870.871C429.394 877.157 430.514 883.194 431.199 888.982ZM455.159 847.471C449.807 849.774 443.957 851.828 437.92 853.757C434.373 841.559 429.705 828.864 423.918 815.857C429.643 802.912 434.248 790.279 437.734 778.143C443.895 780.072 449.745 782.188 455.221 784.491C477.252 793.888 491.504 806.21 491.504 815.981C491.441 825.752 477.19 838.136 455.159 847.471Z" fill="#61DAFB"/>
      <path id="Vector_2" d="M352.597 844.422C368.305 844.422 381.038 831.689 381.038 815.981C381.038 800.274 368.305 787.54 352.597 787.54C336.89 787.54 324.156 800.274 324.156 815.981C324.156 831.689 336.89 844.422 352.597 844.422Z" fill="#61DAFB"/>
    </g>
    <g id="ts-logo">
      <path id="Vector_3" d="M1686.61 666H1444.39C1428.16 666 1415 679.16 1415 695.395V937.605C1415 953.84 1428.16 967 1444.39 967H1686.61C1702.84 967 1716 953.84 1716 937.605V695.395C1716 679.16 1702.84 666 1686.61 666Z" fill="#3178C6"/>
      <path id="Vector_4" fill-rule="evenodd" clip-rule="evenodd" d="M1601.36 905.271V934.666C1606.12 937.135 1611.94 938.958 1618.41 940.192C1624.88 941.427 1631.93 942.015 1638.99 942.015C1646.04 942.015 1652.51 941.368 1658.97 940.016C1665.44 938.664 1670.73 936.43 1675.44 933.549C1680.2 930.433 1684.25 926.494 1686.61 921.203C1688.96 915.912 1690.78 910.033 1690.78 902.391C1690.78 897.041 1689.96 892.397 1688.37 888.281C1686.78 884.166 1684.49 880.639 1681.31 877.699C1678.32 874.584 1674.85 871.821 1670.73 869.469C1666.62 867.117 1661.91 864.648 1656.62 862.414C1652.74 860.827 1649.57 859.298 1646.04 857.77C1642.98 856.241 1640.34 854.713 1638.4 853.184C1636.22 851.597 1634.58 849.951 1633.4 848.246C1632.23 846.482 1631.64 844.542 1631.64 842.367C1631.64 840.368 1632.16 838.546 1633.23 836.9C1634.29 835.254 1635.75 833.902 1637.63 832.726C1639.52 831.55 1641.87 830.668 1644.69 830.021C1647.45 829.375 1650.51 829.081 1654.1 829.081C1656.56 829.081 1659.15 829.263 1661.74 829.633C1664.44 830.004 1667.21 830.574 1669.97 831.338C1672.73 832.103 1675.44 833.043 1678.2 834.219C1680.79 835.395 1683.2 836.747 1685.25 838.275V810.645C1680.79 808.94 1675.85 807.646 1670.56 806.823C1665.27 806 1659.39 805.589 1652.33 805.589C1645.28 805.589 1638.81 806.353 1632.34 807.823C1625.88 809.292 1620.59 811.644 1615.88 814.877C1611.12 818.052 1607.65 821.932 1604.71 827.223C1601.95 832.161 1600.6 837.805 1600.6 844.86C1600.6 853.678 1603.13 861.321 1608.24 867.2C1613.3 873.666 1621.17 878.37 1631.17 883.073C1635.22 884.719 1638.81 886.365 1642.34 887.952C1645.86 889.54 1648.8 891.186 1651.16 892.891C1653.68 894.595 1655.68 896.477 1657.03 898.475C1658.5 900.474 1659.27 902.826 1659.27 905.53C1659.27 907.411 1658.81 909.175 1657.92 910.821C1657.02 912.467 1655.62 913.878 1653.74 915.054C1651.86 916.23 1649.57 917.17 1646.69 917.876C1643.92 918.523 1640.81 918.875 1636.69 918.875C1630.23 918.875 1623.76 917.758 1617.88 915.524C1611.41 913.29 1605.54 909.939 1600.24 905.53L1601.36 905.271ZM1551.98 832.961H1589.6V808.857H1484.37V832.961H1522V940.545H1551.98V832.961Z" fill="white"/>
    </g>
    <g id="1421942630 1">
      <rect x="750.5" y="658.5" width="369" height="315.948" fill="black" fill-opacity="0.5"/>
      <g id="g63">
        <g id="id4">
          <path id="path66" fill-rule="evenodd" clip-rule="evenodd" d="M858.119 862.464L863.132 862.384L867.748 862.119L871.992 861.695L875.838 861.084L879.313 860.262L880.878 859.811L882.363 859.307L883.769 858.777L885.069 858.193L886.263 857.53L887.35 856.867L889.313 855.408L890.215 854.639L891.011 853.843L891.78 853.047L892.47 852.198L893.106 851.323L893.663 850.448L894.167 849.546L894.592 848.617L894.937 847.662L895.228 846.681L895.441 845.673L895.626 844.665L895.732 843.577L895.759 842.516L895.706 840.951L895.52 839.439L895.228 837.98L894.831 836.575L894.327 835.222L893.69 833.948L892.947 832.702L892.098 831.535L891.143 830.394L890.109 829.306L888.995 828.245L887.828 827.237L886.581 826.256L885.228 825.328L883.822 824.399L882.337 823.524L879.18 821.826L875.785 820.235L872.151 818.749L868.278 817.317L851.885 812.065L847.827 810.765L843.795 809.412L835.757 806.441L833.794 805.645L831.858 804.823L830.001 803.948L828.224 803.019L826.447 802.038L824.776 801.03L823.104 799.995L821.539 798.881L820.027 797.767L818.569 796.547L817.216 795.274L815.889 793.974L814.643 792.595L813.476 791.136L812.388 789.65L811.38 788.112L810.452 786.494L809.682 784.796L808.993 782.992L808.436 781.109L808.011 779.119L807.719 777.05L807.507 774.902L807.454 772.674L807.613 768.668L808.197 764.875L809.072 761.294L810.346 757.846L811.964 754.609L812.892 753.044L813.927 751.559L815.041 750.073L816.287 748.668L818.966 745.962L820.452 744.662L822.017 743.469L825.386 741.214L829.073 739.224L833.078 737.447L837.428 735.935L842.097 734.662L847.084 733.574L852.416 732.779V706.465H874.883V732.328L880.745 732.46L886.395 732.858L891.86 733.521L894.486 733.972L897.112 734.45L901.966 735.537L906.316 736.545L910.11 737.553L913.346 738.508L908.226 756.387L904.778 755.326L900.905 754.291L896.661 753.23L891.966 752.142L889.446 751.612L886.793 751.188L883.955 750.816L880.984 750.498L874.591 750.1L867.562 749.967L863.636 750.047L859.922 750.286L856.448 750.71L853.211 751.294L850.187 752.01L847.402 752.938L844.856 753.999L843.662 754.609L842.521 755.246L841.46 755.909L840.479 756.625L839.524 757.368L838.702 758.164L837.906 758.96L837.19 759.808L836.5 760.684L835.943 761.586L835.413 762.541L834.962 763.549L834.59 764.557L834.298 765.591L834.033 766.679L833.874 767.793L833.768 768.933L833.741 770.127L833.768 771.4L833.901 772.674L834.086 773.841L834.378 774.981L834.749 776.069L835.2 777.103L835.731 778.111L836.314 779.066L836.978 779.968L837.747 780.844L838.543 781.692L839.444 782.515L840.426 783.337L841.46 784.106L842.575 784.875L843.768 785.592L844.988 786.308L846.315 786.998L849.073 788.324L852.044 789.544L855.28 790.738L870.002 795.539L890.082 802.648L894.671 804.584L896.847 805.619L898.969 806.68L901.011 807.82L902.974 808.988L904.884 810.208L906.714 811.481L908.465 812.807L910.136 814.187L911.701 815.619L913.187 817.104L914.592 818.67L915.866 820.314L917.112 821.985L918.226 823.762L919.234 825.566L920.136 827.476L920.853 829.492L921.463 831.588L921.94 833.763L922.285 836.071L922.524 838.431L922.577 840.925L922.365 844.877L921.834 848.644L920.906 852.225L919.659 855.62L918.863 857.238L917.988 858.803L917.059 860.315L916.025 861.774L914.858 863.207L913.637 864.586L912.311 865.886L910.905 867.159L909.393 868.379L907.802 869.546L906.104 870.66L904.3 871.668L900.401 873.578L896.104 875.276L891.382 876.708L886.289 877.928L880.798 878.883L874.883 879.653V909.203H852.416V880.104L843.37 879.918L839.206 879.653L835.227 879.308L831.46 878.883L827.932 878.3L824.616 877.663L821.539 876.92L815.942 875.355L811.115 873.843L807.03 872.385L805.279 871.642L803.688 870.926L810.425 853.763L814.722 855.328L819.391 856.867L824.457 858.299L829.948 859.732L832.866 860.368L835.97 860.925L839.232 861.403L842.681 861.774L850.028 862.305L858.119 862.464ZM938.811 908.513H1074.23V926.63H938.811V908.513Z" fill="#66FF00"/>
          <path id="path68" fill-rule="evenodd" clip-rule="evenodd" d="M858.119 862.464L863.132 862.384L867.748 862.119L871.992 861.695L875.838 861.084L879.313 860.262L880.878 859.811L882.363 859.307L883.769 858.777L885.069 858.193L886.263 857.53L887.35 856.867L889.313 855.408L890.215 854.639L891.011 853.843L891.78 853.047L892.47 852.198L893.106 851.323L893.663 850.448L894.167 849.546L894.592 848.617L894.937 847.662L895.228 846.681L895.441 845.673L895.626 844.665L895.732 843.577L895.759 842.516L895.706 840.951L895.52 839.439L895.228 837.98L894.831 836.575L894.327 835.222L893.69 833.948L892.947 832.702L892.098 831.535L891.143 830.394L890.109 829.306L888.995 828.245L887.828 827.237L886.581 826.256L885.228 825.328L883.822 824.399L882.337 823.524L879.18 821.826L875.785 820.235L872.151 818.749L868.278 817.317L851.885 812.065L847.827 810.765L843.795 809.412L835.757 806.441L833.794 805.645L831.858 804.823L830.001 803.948L828.224 803.019L826.447 802.038L824.776 801.03L823.104 799.995L821.539 798.881L820.027 797.767L818.569 796.547L817.216 795.274L815.889 793.974L814.643 792.595L813.476 791.136L812.388 789.65L811.38 788.112L810.452 786.494L809.682 784.796L808.993 782.992L808.436 781.109L808.011 779.119L807.719 777.05L807.507 774.902L807.454 772.674L807.613 768.668L808.197 764.875L809.072 761.294L810.346 757.846L811.964 754.609L812.892 753.044L813.927 751.559L815.041 750.073L816.287 748.668L818.966 745.962L820.452 744.662L822.017 743.468L825.386 741.214L829.073 739.224L833.078 737.447L837.428 735.935L842.097 734.662L847.084 733.574L852.416 732.779V706.465H874.883V732.328L880.745 732.46L886.395 732.858L891.86 733.521L894.486 733.972L897.112 734.45L901.966 735.537L906.316 736.545L910.11 737.553L913.346 738.508L908.226 756.387L904.778 755.326L900.905 754.291L896.661 753.23L891.966 752.142L889.446 751.612L886.793 751.188L883.955 750.816L880.984 750.498L874.591 750.1L867.562 749.967L863.636 750.047L859.922 750.286L856.448 750.71L853.211 751.294L850.187 752.01L847.402 752.938L844.856 753.999L843.662 754.609L842.521 755.246L841.46 755.909L840.479 756.625L839.524 757.368L838.702 758.164L837.906 758.96L837.19 759.808L836.5 760.684L835.943 761.586L835.413 762.541L834.962 763.549L834.59 764.557L834.298 765.591L834.033 766.679L833.874 767.793L833.768 768.933L833.741 770.127L833.768 771.4L833.901 772.674L834.086 773.841L834.378 774.981L834.749 776.069L835.2 777.103L835.731 778.111L836.314 779.066L836.978 779.968L837.747 780.844L838.543 781.692L839.444 782.515L840.426 783.337L841.46 784.106L842.575 784.875L843.768 785.592L844.988 786.308L846.315 786.998L849.073 788.324L852.044 789.544L855.28 790.738L870.002 795.539L890.082 802.648L894.671 804.584L896.847 805.619L898.969 806.68L901.011 807.82L902.974 808.988L904.884 810.208L906.714 811.481L908.465 812.807L910.136 814.187L911.701 815.619L913.187 817.104L914.592 818.67L915.866 820.314L917.112 821.985L918.226 823.762L919.234 825.566L920.136 827.476L920.853 829.492L921.463 831.588L921.94 833.763L922.285 836.071L922.524 838.431L922.577 840.925L922.364 844.877L921.834 848.644L920.906 852.225L919.659 855.62L918.863 857.238L917.988 858.803L917.059 860.315L916.025 861.774L914.858 863.207L913.637 864.586L912.311 865.886L910.905 867.159L909.393 868.379L907.802 869.546L906.104 870.66L904.3 871.668L900.401 873.578L896.104 875.276L891.382 876.708L886.289 877.928L880.798 878.883L874.883 879.653V909.202H852.416V880.104L843.37 879.918L839.206 879.653L835.227 879.308L831.46 878.883L827.932 878.3L824.616 877.663L821.539 876.92L815.942 875.355L811.115 873.843L807.03 872.385L805.279 871.642L803.688 870.926L810.425 853.763L814.722 855.328L819.391 856.867L824.457 858.299L829.948 859.732L832.866 860.368L835.97 860.925L839.232 861.403L842.681 861.774L850.028 862.305L858.119 862.464Z" stroke-width="9.69922" style="paint-order: fill; fill: rgb(59, 148, 0); stroke: rgb(59, 148, 0);"/>
          <path id="path70" fill-rule="evenodd" clip-rule="evenodd" d="M938.809 908.513H1074.22V926.63H938.809V908.513Z" stroke-width="9.69922" style="paint-order: fill; fill: rgb(59, 148, 0); stroke: rgb(59, 148, 0);"/>
        </g>
      </g>
      <rect x="750.5" y="658.5" width="369" height="315.948" stroke="#9B9B9B" stroke-width="13"/>
    </g>
  </g>
  <defs>
    <linearGradient id="paint0_linear_433:2" x1="948.605" y1="-540" x2="31.2584" y2="1110.2" gradientUnits="userSpaceOnUse">
      <stop stop-color="#0B0B0B" stop-opacity="0.01"/>
      <stop offset="1"/>
    </linearGradient>
  </defs>
</svg>