<svg xmlns="http://www.w3.org/2000/svg" viewBox="0 0 64 80" x="0px" y="0px" >
  <title>css, coding</title>
  <g>
    <path fill="#C9D1D8"
      d="M9.5,48.32a4.507,4.507,0,0,0,4.5,4.5H50a4.507,4.507,0,0,0,4.5-4.5V23.6H9.5ZM45.79,39.4H42.53a3.5,3.5,0,0,1-3.5-3.5V34.49a3.5,3.5,0,0,1,3.5-3.5h5.26a1.5,1.5,0,0,1,0,3H42.53a.5.5,0,0,0-.5.5V35.9a.5.5,0,0,0,.5.5h3.26a3.5,3.5,0,0,1,3.5,3.5v1.41a3.51,3.51,0,0,1-3.5,3.5H40.53a1.5,1.5,0,0,1,0-3h5.26a.5.5,0,0,0,.5-.5V39.9A.5.5,0,0,0,45.79,39.4Zm-12.16,0H30.37a3.5,3.5,0,0,1-3.5-3.5V34.49a3.5,3.5,0,0,1,3.5-3.5h5.26a1.5,1.5,0,0,1,0,3H30.37a.5.5,0,0,0-.5.5V35.9a.5.5,0,0,0,.5.5h3.26a3.5,3.5,0,0,1,3.5,3.5v1.41a3.51,3.51,0,0,1-3.5,3.5H28.37a1.5,1.5,0,0,1,0-3h5.26a.5.5,0,0,0,.5-.5V39.9A.5.5,0,0,0,33.63,39.4ZM14.71,34.49a3.5,3.5,0,0,1,3.5-3.5h5.26a1.5,1.5,0,0,1,0,3H18.21a.5.5,0,0,0-.5.5v6.82a.5.5,0,0,0,.5.5h5.26a1.5,1.5,0,0,1,0,3H18.21a3.51,3.51,0,0,1-3.5-3.5ZM54.5,16.318V20.6H9.5V16.318a4.505,4.505,0,0,1,4.5-4.5H50A4.505,4.505,0,0,1,54.5,16.318Z" />
  </g>
</svg>